# xmcd
#
# Track frame offsets: 
#        150
#        20402
#        40795
#        55160
#
# Disc length: 1025 seconds
#
# Revision: 0
# Processed by: cddbd v1.5.2PL0 Copyright (c) Steve Scherf et al.
# Submitted via: ExactAudioCopyFreeDBPlugin 1.0
#
DISCID=2803ff04
DTITLE=Aaliyah - At Your Best (You Are Love) - The R. Kelly Remixes
DYEAR=1994
DGENRE=R&B
TTITLE0=At Your Best (You Are Love) (LP Mix - No Intro)
TTITLE1=At Your Best (You Are Love) (Gangstar Child Remix)
TTITLE2=At Your Best (You Are Love) (Stepper's Ball Remix)
TTITLE3=At Your Best (You Are Love) (LP Mix)
EXTD=
EXTT0=
EXTT1=
EXTT2=
EXTT3=
PLAYORDER=
